<?xml version="1.0" encoding="UTF-8"?>
<svg xmlns="http://www.w3.org/2000/svg" xmlns:xlink="http://www.w3.org/1999/xlink" width="30px" height="30px" viewBox="0 0 30 30" version="1.1">
<g id="surface1">
<path style=" stroke:none;fill-rule:nonzero;fill:rgb(0%,0%,0%);fill-opacity:1;" d="M 23.75 0 L 6.25 0 C 2.800781 0 0 2.800781 0 6.25 L 0 23.75 C 0 27.199219 2.800781 30 6.25 30 L 23.75 30 C 27.199219 30 30 27.199219 30 23.75 L 30 6.25 C 30 2.800781 27.199219 0 23.75 0 Z M 27.5 6.25 L 27.5 13.75 L 16.25 13.75 L 16.25 2.5 L 23.75 2.5 C 25.8125 2.5 27.5 4.1875 27.5 6.25 Z M 6.25 2.5 L 13.75 2.5 L 13.75 13.75 L 2.5 13.75 L 2.5 6.25 C 2.5 4.1875 4.1875 2.5 6.25 2.5 Z M 2.5 23.75 L 2.5 16.25 L 13.75 16.25 L 13.75 27.5 L 6.25 27.5 C 4.1875 27.5 2.5 25.8125 2.5 23.75 Z M 23.75 27.5 L 16.25 27.5 L 16.25 16.25 L 27.5 16.25 L 27.5 23.75 C 27.5 25.8125 25.8125 27.5 23.75 27.5 Z M 23.75 27.5 "/>
</g>
</svg>
