<?xml version="1.0" encoding="UTF-8"?>
<svg xmlns="http://www.w3.org/2000/svg" xmlns:xlink="http://www.w3.org/1999/xlink" width="30px" height="30px" viewBox="0 0 30 30" version="1.1">
<g id="surface1">
<path style=" stroke:none;fill-rule:nonzero;fill:rgb(0%,0%,0%);fill-opacity:1;" d="M 11.078125 7.265625 C 11.398438 7.265625 11.664062 7.003906 11.664062 6.679688 C 11.664062 6.355469 11.398438 6.09375 11.078125 6.09375 C 10.753906 6.09375 10.492188 6.355469 10.492188 6.679688 C 10.492188 7.003906 10.753906 7.265625 11.078125 7.265625 Z M 11.078125 7.265625 "/>
<path style=" stroke:none;fill-rule:nonzero;fill:rgb(0%,0%,0%);fill-opacity:1;" d="M 4.6875 14.734375 L 4.6875 18.5625 C 4.6875 19.976562 5.535156 21.253906 6.835938 21.804688 L 6.007812 24.871094 C 5.84375 25.640625 6.308594 26.402344 7.066406 26.605469 C 7.828125 26.808594 8.609375 26.378906 8.851562 25.632812 L 9.789062 22.082031 L 20.195312 22.082031 L 21.132812 25.632812 C 21.371094 26.378906 22.15625 26.808594 22.914062 26.605469 C 23.671875 26.402344 24.136719 25.640625 23.972656 24.871094 L 23.15625 21.804688 C 24.460938 21.253906 25.308594 19.976562 25.3125 18.5625 L 25.3125 14.734375 C 25.304688 12.871094 24.042969 11.25 22.242188 10.78125 L 22.84375 6.476562 C 22.996094 5.675781 22.777344 4.84375 22.25 4.21875 C 21.695312 3.605469 20.902344 3.265625 20.078125 3.28125 L 9.921875 3.28125 C 9.097656 3.265625 8.304688 3.605469 7.75 4.21875 C 7.222656 4.84375 7.007812 5.671875 7.15625 6.472656 L 7.757812 10.78125 C 5.957031 11.25 4.695312 12.871094 4.6875 14.734375 Z M 7.96875 25.386719 C 7.894531 25.671875 7.601562 25.839844 7.320312 25.765625 C 7.035156 25.691406 6.867188 25.398438 6.941406 25.117188 L 7.75 22.03125 C 7.902344 22.050781 8.058594 22.0625 8.21875 22.0625 L 8.835938 22.0625 Z M 23.09375 25.117188 C 23.171875 25.398438 23 25.691406 22.71875 25.765625 C 22.433594 25.839844 22.144531 25.671875 22.070312 25.386719 L 21.183594 22.105469 L 21.800781 22.105469 C 21.957031 22.105469 22.113281 22.09375 22.269531 22.074219 Z M 8.09375 6.335938 C 7.980469 5.808594 8.105469 5.253906 8.4375 4.828125 C 8.820312 4.417969 9.363281 4.195312 9.921875 4.21875 L 20.078125 4.21875 C 20.636719 4.195312 21.179688 4.417969 21.5625 4.828125 C 21.90625 5.25 22.039062 5.804688 21.933594 6.335938 L 21.3125 10.640625 L 21.210938 10.640625 C 20.523438 10.640625 19.964844 11.195312 19.964844 11.882812 L 19.964844 14.960938 C 19.621094 14.734375 19.214844 14.609375 18.800781 14.609375 L 11.199219 14.609375 C 10.785156 14.609375 10.378906 14.734375 10.035156 14.960938 L 10.035156 11.878906 C 10.035156 11.191406 9.476562 10.636719 8.789062 10.636719 L 8.679688 10.636719 Z M 10.046875 16.710938 C 10.042969 16.402344 10.164062 16.105469 10.382812 15.886719 C 10.601562 15.667969 10.898438 15.542969 11.207031 15.542969 L 18.800781 15.542969 C 19.109375 15.542969 19.40625 15.667969 19.625 15.886719 C 19.84375 16.105469 19.964844 16.402344 19.964844 16.710938 L 19.964844 17.878906 L 10.035156 17.878906 Z M 8.796875 11.554688 C 8.96875 11.554688 9.105469 11.691406 9.109375 11.859375 L 9.109375 17.859375 L 8.835938 17.859375 C 8.578125 17.859375 8.367188 18.070312 8.367188 18.328125 C 8.367188 18.585938 8.578125 18.796875 8.835938 18.796875 L 21.171875 18.796875 C 21.433594 18.796875 21.640625 18.585938 21.640625 18.328125 C 21.640625 18.070312 21.433594 17.859375 21.171875 17.859375 L 20.902344 17.859375 L 20.902344 11.878906 C 20.902344 11.710938 21.042969 11.574219 21.210938 11.574219 C 22.957031 11.574219 24.371094 12.988281 24.375 14.734375 L 24.375 18.5625 C 24.375 19.988281 23.21875 21.144531 21.792969 21.144531 L 8.21875 21.144531 C 7.53125 21.148438 6.871094 20.875 6.386719 20.390625 C 5.898438 19.90625 5.625 19.25 5.625 18.5625 L 5.625 14.734375 C 5.628906 12.988281 7.042969 11.574219 8.789062 11.574219 Z M 8.796875 11.554688 "/>
<path style=" stroke:none;fill-rule:nonzero;fill:rgb(0%,0%,0%);fill-opacity:1;" d="M 15 7.265625 C 15.324219 7.265625 15.585938 7.003906 15.585938 6.679688 C 15.585938 6.355469 15.324219 6.09375 15 6.09375 C 14.675781 6.09375 14.414062 6.355469 14.414062 6.679688 C 14.414062 7.003906 14.675781 7.265625 15 7.265625 Z M 15 7.265625 "/>
<path style=" stroke:none;fill-rule:nonzero;fill:rgb(0%,0%,0%);fill-opacity:1;" d="M 18.921875 7.265625 C 19.246094 7.265625 19.507812 7.003906 19.507812 6.679688 C 19.507812 6.355469 19.246094 6.09375 18.921875 6.09375 C 18.601562 6.09375 18.335938 6.355469 18.335938 6.679688 C 18.335938 7.003906 18.601562 7.265625 18.921875 7.265625 Z M 18.921875 7.265625 "/>
<path style=" stroke:none;fill-rule:nonzero;fill:rgb(0%,0%,0%);fill-opacity:1;" d="M 11.078125 10.085938 C 11.398438 10.085938 11.664062 9.824219 11.664062 9.5 C 11.664062 9.34375 11.605469 9.191406 11.496094 9.082031 C 11.382812 8.96875 11.234375 8.90625 11.078125 8.90625 C 10.753906 8.90625 10.492188 9.167969 10.492188 9.492188 C 10.492188 9.816406 10.753906 10.078125 11.078125 10.078125 Z M 11.078125 10.085938 "/>
<path style=" stroke:none;fill-rule:nonzero;fill:rgb(0%,0%,0%);fill-opacity:1;" d="M 15 10.085938 C 15.324219 10.085938 15.585938 9.824219 15.585938 9.5 C 15.589844 9.34375 15.527344 9.191406 15.417969 9.082031 C 15.308594 8.96875 15.15625 8.90625 15 8.90625 C 14.675781 8.90625 14.414062 9.167969 14.414062 9.492188 C 14.414062 9.816406 14.675781 10.078125 15 10.078125 Z M 15 10.085938 "/>
<path style=" stroke:none;fill-rule:nonzero;fill:rgb(0%,0%,0%);fill-opacity:1;" d="M 18.921875 10.085938 C 19.246094 10.085938 19.507812 9.824219 19.507812 9.5 C 19.511719 9.34375 19.453125 9.191406 19.339844 9.082031 C 19.230469 8.96875 19.082031 8.90625 18.921875 8.90625 C 18.601562 8.90625 18.335938 9.167969 18.335938 9.492188 C 18.335938 9.816406 18.601562 10.078125 18.921875 10.078125 Z M 18.921875 10.085938 "/>
<path style=" stroke:none;fill-rule:nonzero;fill:rgb(0%,0%,0%);fill-opacity:1;" d="M 13.039062 12.914062 C 13.363281 12.914062 13.625 12.652344 13.625 12.328125 C 13.625 12.003906 13.363281 11.742188 13.039062 11.742188 C 12.71875 11.742188 12.453125 12.003906 12.453125 12.328125 C 12.453125 12.652344 12.71875 12.914062 13.039062 12.914062 Z M 13.039062 12.914062 "/>
<path style=" stroke:none;fill-rule:nonzero;fill:rgb(0%,0%,0%);fill-opacity:1;" d="M 17.546875 12.328125 C 17.546875 12.003906 17.28125 11.742188 16.960938 11.742188 C 16.636719 11.742188 16.375 12.003906 16.375 12.328125 C 16.375 12.652344 16.636719 12.914062 16.960938 12.914062 C 17.28125 12.914062 17.546875 12.652344 17.546875 12.328125 Z M 17.546875 12.328125 "/>
</g>
</svg>
