<?xml version="1.0" encoding="UTF-8"?>
<svg xmlns="http://www.w3.org/2000/svg" xmlns:xlink="http://www.w3.org/1999/xlink" width="30px" height="30px" viewBox="0 0 30 30" version="1.1">
<g id="surface1">
<path style=" stroke:none;fill-rule:nonzero;fill:rgb(0%,0%,0%);fill-opacity:1;" d="M 6.585938 26.71875 L 23.4375 26.71875 C 24.214844 26.71875 24.84375 26.089844 24.84375 25.3125 L 24.84375 4.6875 C 24.84375 3.910156 24.214844 3.28125 23.4375 3.28125 L 6.585938 3.28125 C 5.808594 3.28125 5.179688 3.910156 5.179688 4.6875 L 5.179688 25.3125 C 5.179688 26.089844 5.808594 26.71875 6.585938 26.71875 Z M 15.46875 20.46875 L 23.90625 20.46875 L 23.90625 22.65625 L 15.46875 22.65625 Z M 23.90625 19.53125 L 15.46875 19.53125 L 15.46875 17.34375 L 23.90625 17.34375 Z M 23.4375 25.78125 L 15.46875 25.78125 L 15.46875 23.59375 L 23.90625 23.59375 L 23.90625 25.3125 C 23.90625 25.570312 23.695312 25.78125 23.4375 25.78125 Z M 23.90625 4.6875 L 23.90625 16.40625 L 15.46875 16.40625 L 15.46875 4.21875 L 23.4375 4.21875 C 23.695312 4.21875 23.90625 4.429688 23.90625 4.6875 Z M 6.140625 4.6875 C 6.140625 4.429688 6.351562 4.21875 6.609375 4.21875 L 14.53125 4.21875 L 14.53125 25.78125 L 6.585938 25.78125 C 6.328125 25.78125 6.117188 25.570312 6.117188 25.3125 Z M 6.140625 4.6875 "/>
<path style=" stroke:none;fill-rule:nonzero;fill:rgb(0%,0%,0%);fill-opacity:1;" d="M 16.875 15.46875 L 22.472656 15.46875 C 22.730469 15.46875 22.941406 15.257812 22.941406 15 L 22.941406 5.625 C 22.941406 5.367188 22.730469 5.15625 22.472656 5.15625 L 16.875 5.15625 C 16.617188 5.15625 16.40625 5.367188 16.40625 5.625 L 16.40625 15 C 16.40625 15.257812 16.617188 15.46875 16.875 15.46875 Z M 17.34375 6.09375 L 21.992188 6.09375 L 21.992188 14.53125 L 17.34375 14.53125 Z M 17.34375 6.09375 "/>
<path style=" stroke:none;fill-rule:nonzero;fill:rgb(0%,0%,0%);fill-opacity:1;" d="M 13.054688 17.5625 C 13.054688 17.242188 12.792969 16.976562 12.46875 16.976562 C 12.144531 16.976562 11.882812 17.242188 11.882812 17.5625 C 11.882812 17.886719 12.144531 18.148438 12.46875 18.148438 C 12.792969 18.148438 13.054688 17.886719 13.054688 17.5625 Z M 13.054688 17.5625 "/>
<path style=" stroke:none;fill-rule:nonzero;fill:rgb(0%,0%,0%);fill-opacity:1;" d="M 8 5.734375 C 8 5.410156 7.738281 5.148438 7.414062 5.148438 C 7.09375 5.148438 6.828125 5.410156 6.828125 5.734375 C 6.828125 6.054688 7.09375 6.320312 7.414062 6.320312 C 7.738281 6.320312 8 6.054688 8 5.734375 Z M 8 5.734375 "/>
<path style=" stroke:none;fill-rule:nonzero;fill:rgb(0%,0%,0%);fill-opacity:1;" d="M 12.46875 15.96875 C 13.15625 15.96875 13.714844 15.410156 13.714844 14.722656 L 13.714844 12.628906 C 13.742188 12.164062 13.511719 11.726562 13.117188 11.484375 C 12.71875 11.246094 12.222656 11.246094 11.824219 11.484375 C 11.429688 11.726562 11.199219 12.164062 11.226562 12.628906 L 11.226562 14.722656 C 11.226562 15.410156 11.78125 15.96875 12.46875 15.96875 Z M 12.1875 12.628906 C 12.171875 12.507812 12.226562 12.394531 12.328125 12.328125 C 12.429688 12.265625 12.558594 12.265625 12.660156 12.328125 C 12.761719 12.394531 12.816406 12.507812 12.800781 12.628906 L 12.800781 14.722656 C 12.816406 14.84375 12.761719 14.957031 12.660156 15.023438 C 12.558594 15.085938 12.429688 15.085938 12.328125 15.023438 C 12.226562 14.957031 12.171875 14.84375 12.1875 14.722656 Z M 12.1875 12.628906 "/>
<path style=" stroke:none;fill-rule:nonzero;fill:rgb(0%,0%,0%);fill-opacity:1;" d="M 19.074219 18.90625 L 20.277344 18.90625 C 20.535156 18.90625 20.746094 18.695312 20.746094 18.4375 C 20.746094 18.175781 20.535156 17.96875 20.277344 17.96875 L 19.074219 17.96875 C 18.816406 17.96875 18.605469 18.175781 18.605469 18.4375 C 18.605469 18.695312 18.816406 18.90625 19.074219 18.90625 Z M 19.074219 18.90625 "/>
<path style=" stroke:none;fill-rule:nonzero;fill:rgb(0%,0%,0%);fill-opacity:1;" d="M 20.277344 21.09375 L 19.074219 21.09375 C 18.816406 21.09375 18.605469 21.304688 18.605469 21.5625 C 18.605469 21.820312 18.816406 22.03125 19.074219 22.03125 L 20.277344 22.03125 C 20.535156 22.03125 20.746094 21.820312 20.746094 21.5625 C 20.746094 21.304688 20.535156 21.09375 20.277344 21.09375 Z M 20.277344 21.09375 "/>
<path style=" stroke:none;fill-rule:nonzero;fill:rgb(0%,0%,0%);fill-opacity:1;" d="M 20.277344 24.21875 L 19.074219 24.21875 C 18.816406 24.21875 18.605469 24.429688 18.605469 24.6875 C 18.605469 24.949219 18.816406 25.15625 19.074219 25.15625 L 20.277344 25.15625 C 20.535156 25.15625 20.746094 24.949219 20.746094 24.6875 C 20.746094 24.429688 20.535156 24.21875 20.277344 24.21875 Z M 20.277344 24.21875 "/>
<path style=" stroke:none;fill-rule:nonzero;fill:rgb(0%,0%,0%);fill-opacity:1;" d="M 8 7.867188 C 8 7.542969 7.738281 7.28125 7.414062 7.28125 C 7.09375 7.28125 6.828125 7.542969 6.828125 7.867188 C 6.828125 8.1875 7.09375 8.453125 7.414062 8.453125 C 7.738281 8.453125 8 8.1875 8 7.867188 Z M 8 7.867188 "/>
<path style=" stroke:none;fill-rule:nonzero;fill:rgb(0%,0%,0%);fill-opacity:1;" d="M 8 9.992188 C 8 9.671875 7.738281 9.40625 7.414062 9.40625 C 7.09375 9.40625 6.828125 9.671875 6.828125 9.992188 C 6.828125 10.316406 7.09375 10.578125 7.414062 10.578125 C 7.738281 10.578125 8 10.316406 8 9.992188 Z M 8 9.992188 "/>
</g>
</svg>
