<?xml version="1.0" encoding="UTF-8"?>
<svg xmlns="http://www.w3.org/2000/svg" xmlns:xlink="http://www.w3.org/1999/xlink" width="30px" height="30px" viewBox="0 0 30 30" version="1.1">
<g id="surface1">
<path style=" stroke:none;fill-rule:nonzero;fill:rgb(0%,0%,0%);fill-opacity:1;" d="M 25.613281 6.304688 L 4.386719 6.304688 C 3.777344 6.304688 3.28125 6.800781 3.28125 7.410156 L 3.28125 8.71875 C 3.28125 9.148438 3.53125 9.535156 3.917969 9.71875 L 3.917969 22.34375 C 3.890625 22.847656 4.140625 23.320312 4.570312 23.582031 C 4.996094 23.839844 5.535156 23.839844 5.964844 23.582031 C 6.394531 23.320312 6.644531 22.847656 6.613281 22.34375 L 6.613281 13.820312 L 23.386719 13.820312 L 23.386719 22.34375 C 23.355469 22.847656 23.605469 23.320312 24.035156 23.582031 C 24.464844 23.839844 25.003906 23.839844 25.429688 23.582031 C 25.859375 23.320312 26.109375 22.847656 26.082031 22.34375 L 26.082031 9.71875 C 26.46875 9.535156 26.71875 9.148438 26.71875 8.71875 L 26.71875 7.410156 C 26.71875 6.800781 26.222656 6.304688 25.613281 6.304688 Z M 4.21875 7.410156 C 4.21875 7.316406 4.292969 7.242188 4.386719 7.242188 L 25.613281 7.242188 C 25.707031 7.242188 25.78125 7.316406 25.78125 7.410156 L 25.78125 8.71875 C 25.78125 8.8125 25.707031 8.886719 25.613281 8.886719 L 4.386719 8.886719 C 4.292969 8.886719 4.21875 8.8125 4.21875 8.71875 Z M 5.675781 22.34375 C 5.695312 22.503906 5.617188 22.65625 5.484375 22.738281 C 5.351562 22.824219 5.179688 22.824219 5.046875 22.738281 C 4.914062 22.65625 4.839844 22.503906 4.855469 22.34375 L 4.855469 9.84375 L 5.675781 9.84375 Z M 6.613281 9.824219 L 14.53125 9.824219 L 14.53125 12.882812 L 6.613281 12.882812 Z M 15.46875 12.882812 L 15.46875 9.84375 L 23.386719 9.84375 L 23.386719 12.898438 Z M 24.734375 22.757812 C 24.625 22.757812 24.519531 22.714844 24.441406 22.636719 C 24.363281 22.5625 24.320312 22.457031 24.324219 22.34375 L 24.324219 9.84375 L 25.144531 9.84375 L 25.144531 22.34375 C 25.144531 22.453125 25.101562 22.558594 25.027344 22.636719 C 24.949219 22.714844 24.84375 22.757812 24.734375 22.757812 Z M 24.734375 22.757812 "/>
<path style=" stroke:none;fill-rule:nonzero;fill:rgb(0%,0%,0%);fill-opacity:1;" d="M 11.644531 10.851562 L 9.5 10.851562 C 9.242188 10.851562 9.03125 11.0625 9.03125 11.320312 C 9.03125 11.578125 9.242188 11.789062 9.5 11.789062 L 11.644531 11.789062 C 11.902344 11.789062 12.113281 11.578125 12.113281 11.320312 C 12.113281 11.0625 11.902344 10.851562 11.644531 10.851562 Z M 11.644531 10.851562 "/>
<path style=" stroke:none;fill-rule:nonzero;fill:rgb(0%,0%,0%);fill-opacity:1;" d="M 20.5 10.851562 L 18.355469 10.851562 C 18.097656 10.851562 17.886719 11.0625 17.886719 11.320312 C 17.886719 11.578125 18.097656 11.789062 18.355469 11.789062 L 20.5 11.789062 C 20.757812 11.789062 20.96875 11.578125 20.96875 11.320312 C 20.96875 11.0625 20.757812 10.851562 20.5 10.851562 Z M 20.5 10.851562 "/>
</g>
</svg>
